<?xml version="1.0" standalone="no"?><!DOCTYPE svg PUBLIC "-//W3C//DTD SVG 1.1//EN" "http://www.w3.org/Graphics/SVG/1.1/DTD/svg11.dtd"><svg t="1647031087042" class="icon" viewBox="0 0 1024 1024" version="1.1" xmlns="http://www.w3.org/2000/svg" p-id="14226" xmlns:xlink="http://www.w3.org/1999/xlink" ><defs><style type="text/css"></style></defs><path d="M620.544 587.264c54.272-98.304 73.728-192 73.728-192H512V326.144h216.576v-29.696H512V193.024h-98.816v103.424h-197.12v29.696h197.12v69.12H245.76v29.696h339.968c0 5.12 0 5.12-5.12 9.728 0 34.304-24.576 83.456-44.544 123.392-250.88-98.816-325.12-39.424-344.576-29.696-167.424 118.272-9.728 266.24 14.848 261.12 177.152 39.424 290.816-34.304 369.664-128 5.12 5.12 9.728 5.12 14.848 5.12 54.272 29.696 315.392 152.576 315.392 152.576v-147.968c-39.424-0.512-182.272-49.664-285.696-83.968z m-128 44.032c-123.392 157.696-270.848 108.544-295.424 98.304-58.88-14.848-78.848-123.392-5.12-157.696 123.392-39.424 231.424 5.12 310.272 44.544-5.12 10.24-9.728 14.848-9.728 14.848z" fill="#bfbfbf" p-id="14227"></path></svg>