<?xml version="1.0" standalone="no"?><!DOCTYPE svg PUBLIC "-//W3C//DTD SVG 1.1//EN" "http://www.w3.org/Graphics/SVG/1.1/DTD/svg11.dtd"><svg t="1647030937371" class="icon" viewBox="0 0 1024 1024" version="1.1" xmlns="http://www.w3.org/2000/svg" p-id="13158" xmlns:xlink="http://www.w3.org/1999/xlink" ><defs><style type="text/css"></style></defs><path d="M656.768 506.965333a209.664 209.664 0 0 0 210.56-210.517333 209.664 209.664 0 0 0-210.56-210.56c-116.949333 0-216.405333 87.722667-216.405333 204.714667 0 122.794667 99.413333 216.362667 216.405333 216.362666z m-64.341333-198.826666c-11.690667 0-23.381333-5.845333-23.381334-17.536 0-11.733333 11.690667-17.578667 23.381334-17.578667h35.114666l-35.114666-35.072c-11.690667-11.690667-11.690667-23.381333 0-29.269333 11.690667-5.845333 17.536-5.845333 29.269333 0l35.072 35.114666 35.114667-35.114666c11.690667-11.690667 23.381333-11.690667 29.226666 0 5.845333 11.733333 5.845333 17.578667 0 29.269333l-35.114666 35.072h23.424c11.690667 0 23.381333 5.845333 23.381333 17.578667 0 11.690667-11.690667 17.493333-23.381333 17.493333h-35.114667v17.578667h40.96c11.690667 0 23.381333 5.845333 23.381333 17.536 0 11.690667-11.690667 17.536-23.381333 17.536h-35.114667v23.424c0 11.690667-5.845333 23.381333-17.493333 23.381333-11.733333 0-17.578667-11.690667-17.578667-23.381333v-17.536h-52.650666c-11.690667 0-23.381333-5.888-23.381334-17.578667 0-11.690667 11.690667-17.493333 23.381334-17.493333h46.805333v-23.466667h-46.805333z" fill="#bfbfbf" p-id="13159"></path><path d="M972.586667 553.770667c-11.690667-23.381333-29.226667-35.072-40.96-35.072h-23.381334l-122.794666 58.453333c0 40.96-29.269333 76.032-70.186667 76.032h-239.786667c-11.690667 0-17.578667-11.690667-17.578666-17.493333 0-11.733333 11.733333-17.578667 17.578666-17.578667h228.096c17.493333 0 23.381333-11.690667 29.226667-29.269333 0-35.072-29.226667-64.298667-64.341333-64.298667h-134.528c0-5.845333-5.845333-11.733333-5.845334-11.733333l-23.381333-23.381334c-29.226667-29.226667-64.341333-40.96-111.104-40.96H229.802667v-23.381333c0-11.690667-5.845333-17.493333-17.493334-17.493333H60.16c-5.845333 0-17.536 5.802667-17.536 17.493333v315.818667c0 5.888 5.845333 11.733333 17.536 11.733333h157.909333c11.690667 0 17.578667-5.845333 17.578667-17.578667v-29.226666l298.24 157.909333c35.114667 11.690667 76.032 0 99.413333-17.536l298.325334-210.56 5.845333-5.845333c35.072-17.536 46.762667-46.805333 35.072-76.032z" fill="#bfbfbf" p-id="13160"></path></svg>