<?xml version="1.0" standalone="no"?><!DOCTYPE svg PUBLIC "-//W3C//DTD SVG 1.1//EN" "http://www.w3.org/Graphics/SVG/1.1/DTD/svg11.dtd"><svg t="1647024215981" class="icon" viewBox="0 0 1024 1024" version="1.1" xmlns="http://www.w3.org/2000/svg" p-id="3010" xmlns:xlink="http://www.w3.org/1999/xlink" ><defs><style type="text/css"></style></defs><path d="M213.81 469.333l54.97 367.014 0.471 6.32c0 5.427 5.493 10.666 13.252 10.666h475.303c7.758 0 13.251-5.239 13.251-10.666l0.47-6.32 39.61-264.452c3.49-23.304 25.212-39.367 48.516-35.876 23.305 3.49 39.367 25.212 35.876 48.516l-39.208 261.77c-1.967 51.76-45.739 92.362-98.515 92.362H282.503c-52.777 0-96.549-40.602-98.516-92.362l-55.516-370.652a43.012 43.012 0 0 1-0.477-6.32h-42.66c-23.565 0-42.667-19.102-42.667-42.666 0-23.564 19.102-42.667 42.666-42.667h853.334c23.564 0 42.666 19.103 42.666 42.667s-19.102 42.666-42.666 42.666H213.809z m449.04-140.496l-90.51-90.51c-33.325-33.325-87.355-33.325-120.68 0l-90.51 90.51c-16.662 16.662-43.677 16.662-60.34 0-16.662-16.663-16.662-43.678 0-60.34l90.51-90.51c66.65-66.65 174.71-66.65 241.36 0l90.51 90.51c16.662 16.662 16.662 43.677 0 60.34-16.663 16.662-43.678 16.662-60.34 0zM339.732 609.875c0-23.564 19.103-42.667 42.667-42.667s42.667 19.103 42.667 42.667v135.45c0 23.564-19.103 42.666-42.667 42.666s-42.667-19.102-42.667-42.666v-135.45z m150.578 0c0-23.564 19.103-42.667 42.667-42.667s42.666 19.103 42.666 42.667v135.45c0 23.564-19.102 42.666-42.666 42.666-23.564 0-42.667-19.102-42.667-42.666v-135.45z m150.578 0c0-23.564 19.102-42.667 42.667-42.667 23.564 0 42.666 19.103 42.666 42.667v135.45c0 23.564-19.102 42.666-42.666 42.666-23.565 0-42.667-19.102-42.667-42.666v-135.45z" p-id="3011" fill=""></path></svg>