<?xml version="1.0" standalone="no"?><!DOCTYPE svg PUBLIC "-//W3C//DTD SVG 1.1//EN" "http://www.w3.org/Graphics/SVG/1.1/DTD/svg11.dtd">
<svg t="1647024989985" class="icon" viewBox="0 0 1084 1024" version="1.1" xmlns="http://www.w3.org/2000/svg" p-id="7194" xmlns:xlink="http://www.w3.org/1999/xlink" >
    <defs>
        <style type="text/css"></style>
    </defs>
    <path d="M575.637635 674.539683h-63.209877c-27.992945 0-35.66843 7.675485-35.66843 35.66843v63.209876c0 27.992945 7.675485 35.66843 35.66843 35.668431h63.209877c27.992945 0 35.66843-7.675485 35.66843-35.668431v-65.467372c-2.257496-26.186949-10.38448-33.410935-35.66843-33.410934zM364.336048 887.647266h-63.209877c-27.992945 0-35.66843 7.675485-35.66843 35.668431v65.015873c0 27.992945 7.675485 35.66843 35.66843 35.66843h63.209877c27.992945 0 35.66843-7.675485 35.66843-35.66843v-65.918872c-2.257496-27.541446-9.932981-34.765432-35.66843-34.765432zM786.939222 887.647266H722.826347c-27.992945 0-35.66843 7.675485-35.66843 35.668431v65.015873c0 27.992945 7.675485 35.66843 35.66843 35.66843h63.209877c27.992945 0 35.66843-7.675485 35.66843-35.66843v-65.918872c-1.354497-27.541446-8.578483-34.765432-34.765432-34.765432z" p-id="7195" fill="#ffffff"></path>
    <path d="M1070.029169 360.296296L574.283137 13.996473a45.149912 45.149912 0 0 0-14.447971-9.932981 51.922399 51.922399 0 0 0-51.019401 9.932981L16.230227 362.102293a35.66843 35.66843 0 0 0-15.802469 23.477954 47.407407 47.407407 0 0 0 9.029983 34.765432 45.149912 45.149912 0 0 0 30.70194 19.414462 34.765432 34.765432 0 0 0 26.638448-5.869488L90.727582 416.282187v561.213404a45.149912 45.149912 0 1 0 90.299824 0V353.52381l361.199294-254.645503 369.326279 258.257495v618.553792a45.149912 45.149912 0 0 0 90.299823 0V420.345679l17.608466 11.738977a41.08642 41.08642 0 0 0 55.534392-11.738977 45.149912 45.149912 0 0 0-4.966491-60.049383z" p-id="7196" fill="#ffffff"></path>
    <path d="M575.637635 887.647266h-63.209877c-27.992945 0-35.66843 7.675485-35.66843 35.668431v65.015873c0 27.992945 7.675485 35.66843 35.66843 35.66843h63.209877c27.992945 0 35.66843-7.675485 35.66843-35.66843v-65.918872c-2.257496-27.541446-9.932981-34.765432-35.66843-34.765432zM364.336048 461.432099h-63.209877c-27.992945 0-35.66843 7.675485-35.66843 35.66843v65.015873c0 27.992945 7.675485 35.66843 35.66843 35.66843h63.209877c27.992945 0 35.66843-7.675485 35.66843-35.66843V496.64903c-2.257496-28.444444-9.029982-35.216931-35.66843-35.216931zM364.336048 674.539683h-63.209877c-27.992945 0-35.66843 7.675485-35.66843 35.66843v63.209876c0 27.992945 7.675485 35.66843 35.66843 35.668431h63.209877c27.992945 0 35.66843-7.675485 35.66843-35.668431v-65.467372c-2.257496-26.186949-9.932981-33.410935-35.66843-33.410934z" p-id="7197" fill="#ffffff"></path>
</svg>